<svg width="34" height="32" viewBox="0 0 34 32" fill="none" xmlns="http://www.w3.org/2000/svg">
<path d="M19.8333 13.167C19.8333 14.6106 19.397 15.9493 18.6547 17.0685L14.5817 12.9956C14.3154 12.7292 14.1667 12.3694 14.1667 11.994V6.22674C17.3995 6.88266 19.8333 9.74008 19.8333 13.167ZM11.3333 12.5805V6.22674C7.72083 6.96058 5.10567 10.4427 5.77008 14.3967C6.2305 17.1365 8.34842 19.4159 11.0528 20.052C13.1353 20.5407 15.1045 20.0987 16.6515 19.0731L12.1621 14.5837C11.6308 14.0524 11.3333 13.3313 11.3333 12.5805ZM26.9167 6.08366H24.0833C23.2999 6.08366 22.6667 6.71833 22.6667 7.50033C22.6667 8.28233 23.2999 8.91699 24.0833 8.91699H26.9167C27.7001 8.91699 28.3333 8.28233 28.3333 7.50033C28.3333 6.71833 27.7001 6.08366 26.9167 6.08366ZM26.9167 11.7503H24.0833C23.2999 11.7503 22.6667 12.385 22.6667 13.167C22.6667 13.949 23.2999 14.5837 24.0833 14.5837H26.9167C27.7001 14.5837 28.3333 13.949 28.3333 13.167C28.3333 12.385 27.7001 11.7503 26.9167 11.7503ZM26.9167 17.417H24.0833C23.2999 17.417 22.6667 18.0517 22.6667 18.8337C22.6667 19.6157 23.2999 20.2503 24.0833 20.2503H26.9167C27.7001 20.2503 28.3333 19.6157 28.3333 18.8337C28.3333 18.0517 27.7001 17.417 26.9167 17.417ZM34 7.50033V18.8337C34 22.7394 30.8224 25.917 26.9167 25.917H18.4167V28.7503H24.0833C24.8667 28.7503 25.5 29.385 25.5 30.167C25.5 30.949 24.8667 31.5837 24.0833 31.5837H9.91667C9.13325 31.5837 8.5 30.949 8.5 30.167C8.5 29.385 9.13325 28.7503 9.91667 28.7503H15.5833V25.917H7.08333C3.17758 25.917 0 22.7394 0 18.8337V7.50033C0 3.59458 3.17758 0.416992 7.08333 0.416992H26.9167C30.8224 0.416992 34 3.59458 34 7.50033ZM31.1667 7.50033C31.1667 5.15716 29.2598 3.25033 26.9167 3.25033H7.08333C4.74017 3.25033 2.83333 5.15716 2.83333 7.50033V18.8337C2.83333 21.1768 4.74017 23.0837 7.08333 23.0837H26.9167C29.2598 23.0837 31.1667 21.1768 31.1667 18.8337V7.50033Z" fill="#A6EFFF"/>
</svg>
