<svg width="34" height="34" viewBox="0 0 34 34" fill="none" xmlns="http://www.w3.org/2000/svg">
<path d="M15.5839 18.091C15.8946 18.091 16.1539 17.9824 16.3616 17.7652C16.5694 17.5479 16.6733 17.2929 16.6733 17.0002C16.6733 16.6894 16.5694 16.4302 16.3616 16.2224C16.1539 16.0146 15.8946 15.9107 15.5839 15.9107C15.2911 15.9107 15.0361 16.0146 14.8189 16.2224C14.6017 16.4302 14.4931 16.6894 14.4931 17.0002C14.4931 17.2929 14.6017 17.5479 14.8189 17.7652C15.0361 17.9824 15.2911 18.091 15.5839 18.091ZM9.91723 28.3335V26.9168L19.8339 25.9365V9.1405C19.8339 8.605 19.6592 8.1408 19.3097 7.74791C18.9622 7.35597 18.5325 7.13639 18.0206 7.08916L10.7885 6.37516V4.9585L18.1976 5.6895C19.0731 5.78677 19.8004 6.16172 20.3793 6.81433C20.9601 7.466 21.2506 8.22958 21.2506 9.10508V27.1846L9.91723 28.3335ZM6.32031 28.3335V26.9168H8.50056V7.24783C8.50056 6.58955 8.72345 6.04366 9.16923 5.61016C9.61501 5.17572 10.1552 4.9585 10.7899 4.9585H23.2126C23.87 4.9585 24.4159 5.17572 24.8503 5.61016C25.2848 6.04461 25.5015 6.5905 25.5006 7.24783V26.9168H27.6808V28.3335H6.32031ZM9.91723 26.9168H24.0839V7.24783C24.0839 6.99283 24.0022 6.78363 23.8388 6.62025C23.6754 6.45686 23.4667 6.37516 23.2126 6.37516H10.7885C10.5344 6.37516 10.3257 6.45686 10.1623 6.62025C9.99892 6.78363 9.91723 6.99283 9.91723 7.24783V26.9168Z" fill="white"/>
</svg>
