<svg width="16" height="16" viewBox="0 0 16 16" fill="none" xmlns="http://www.w3.org/2000/svg">
<g clip-path="url(#clip0_70_5494)">
<g clip-path="url(#clip1_70_5494)">
<path d="M2 10.5L0 16L5 14L5.46262 14.2313C6.47364 14.7368 7.58848 15 8.71885 15C12.7401 15 16 11.7401 16 7.71885V7.5C16 3.35786 12.6421 0 8.5 0H7.70813C4.00333 0 1 3.00333 1 6.70813C1 7.56154 1.16284 8.4071 1.47979 9.19947L2 10.5Z" fill="#F5F6F7"/>
</g>
<g clip-path="url(#clip2_70_5494)">
<circle cx="12" cy="12" r="5" fill="#9ECFFF" stroke="#2A3038" stroke-width="2"/>
<rect x="11.5" y="8.5" width="1" height="4" rx="0.5" fill="#2A3038"/>
<path d="M12 12L13.9999 11.5" stroke="#2A3038" stroke-linecap="round"/>
</g>
</g>
<defs>
<clipPath id="clip0_70_5494">
<rect width="16" height="16" fill="white"/>
</clipPath>
<clipPath id="clip1_70_5494">
<rect width="16" height="16" fill="white"/>
</clipPath>
<clipPath id="clip2_70_5494">
<rect width="10" height="10" fill="white" transform="translate(6 6)"/>
</clipPath>
</defs>
</svg>
