<svg width="34" height="34" viewBox="0 0 34 34" fill="none" xmlns="http://www.w3.org/2000/svg">
<g clip-path="url(#clip0_107_1967)">
<path d="M12.75 34.0003H1.41667C1.04094 34.0003 0.680609 33.8511 0.414932 33.5854C0.149256 33.3197 0 32.9594 0 32.5837C0 32.2079 0.149256 31.8476 0.414932 31.5819C0.680609 31.3162 1.04094 31.167 1.41667 31.167H12.75C13.1257 31.167 13.4861 31.3162 13.7517 31.5819C14.0174 31.8476 14.1667 32.2079 14.1667 32.5837C14.1667 32.9594 14.0174 33.3197 13.7517 33.5854C13.4861 33.8511 13.1257 34.0003 12.75 34.0003Z" fill="#A6EFFF"/>
<path d="M9.91667 28.3333H1.41667C1.04094 28.3333 0.680609 28.1841 0.414932 27.9184C0.149256 27.6527 0 27.2924 0 26.9167C0 26.5409 0.149256 26.1806 0.414932 25.9149C0.680609 25.6493 1.04094 25.5 1.41667 25.5H9.91667C10.2924 25.5 10.6527 25.6493 10.9184 25.9149C11.1841 26.1806 11.3333 26.5409 11.3333 26.9167C11.3333 27.2924 11.1841 27.6527 10.9184 27.9184C10.6527 28.1841 10.2924 28.3333 9.91667 28.3333Z" fill="#A6EFFF"/>
<path d="M7.08333 22.6663H1.41667C1.04094 22.6663 0.680609 22.5171 0.414932 22.2514C0.149256 21.9857 0 21.6254 0 21.2497C0 20.874 0.149256 20.5136 0.414932 20.2479C0.680609 19.9823 1.04094 19.833 1.41667 19.833H7.08333C7.45906 19.833 7.81939 19.9823 8.08507 20.2479C8.35074 20.5136 8.5 20.874 8.5 21.2497C8.5 21.6254 8.35074 21.9857 8.08507 22.2514C7.81939 22.5171 7.45906 22.6663 7.08333 22.6663Z" fill="#A6EFFF"/>
<path d="M18.4175 33.936C18.0417 33.9527 17.6748 33.8195 17.3973 33.5656C17.1198 33.3118 16.9545 32.9581 16.9377 32.5824C16.921 32.2066 17.0542 31.8397 17.3081 31.5622C17.562 31.2847 17.9156 31.1194 18.2914 31.1026C20.9724 30.8573 23.5279 29.8532 25.6588 28.2078C27.7896 26.5624 29.4076 24.3439 30.323 21.8122C31.2385 19.2804 31.4136 16.5402 30.8278 13.9125C30.242 11.2849 28.9197 8.87849 27.0156 6.97526C25.1115 5.07204 22.7045 3.75078 20.0765 3.16622C17.4486 2.58167 14.7085 2.75803 12.1771 3.67465C9.64581 4.59127 7.42806 6.2102 5.78366 8.34181C4.13925 10.4734 3.13628 13.0295 2.89221 15.7106C2.85839 16.0848 2.6773 16.4302 2.38878 16.6709C2.10025 16.9117 1.72793 17.0279 1.35371 16.9941C0.979485 16.9603 0.634025 16.7792 0.393322 16.4906C0.152619 16.2021 0.0363908 15.8298 0.0702059 15.4556C0.465299 11.0969 2.52614 7.05856 5.82375 4.18112C9.12136 1.30368 13.4017 -0.19114 17.7737 0.00782733C22.1456 0.206795 26.2725 2.08422 29.2951 5.24929C32.3177 8.41436 34.0032 12.6232 34.0008 16.9997C34.0225 21.2474 32.4445 25.3476 29.5806 28.4847C26.7168 31.6218 22.777 33.5659 18.545 33.9303C18.5025 33.9346 18.4585 33.936 18.4175 33.936Z" fill="#A6EFFF"/>
<path d="M17.0007 8.5C16.6249 8.5 16.2646 8.64926 15.9989 8.91493C15.7332 9.18061 15.584 9.54094 15.584 9.91667V17C15.5841 17.3757 15.7334 17.736 15.9991 18.0016L20.2491 22.2516C20.5163 22.5096 20.8741 22.6524 21.2456 22.6492C21.617 22.646 21.9723 22.497 22.235 22.2343C22.4976 21.9717 22.6466 21.6163 22.6499 21.2449C22.6531 20.8735 22.5103 20.5156 22.2522 20.2484L18.4173 16.4135V9.91667C18.4173 9.54094 18.2681 9.18061 18.0024 8.91493C17.7367 8.64926 17.3764 8.5 17.0007 8.5Z" fill="#A6EFFF"/>
</g>
<defs>
<clipPath id="clip0_107_1967">
<rect width="34" height="34" fill="white"/>
</clipPath>
</defs>
</svg>
