<svg width="24" height="24" viewBox="0 0 24 24" fill="none" xmlns="http://www.w3.org/2000/svg">
<g clip-path="url(#clip0_107_1963)">
<path d="M21.364 23.8636L19.95 22.4496C22.679 19.7206 22.679 15.2786 19.95 12.5496L21.364 11.1356C24.873 14.6456 24.873 20.3536 21.364 23.8636ZM18.534 13.9656L17.12 15.3796C17.686 15.9456 17.998 16.6986 17.998 17.4996C17.998 18.3006 17.686 19.0536 17.12 19.6196L18.534 21.0336C20.483 19.0856 20.483 15.9136 18.534 13.9656ZM11.8 4.4186C9.363 1.1636 5.491 -0.443396 1.453 0.104604C0.962 0.172604 0.477 0.273604 0 0.408604V2.5296C0.562 2.3296 1.135 2.1686 1.725 2.0866C5.039 1.6276 8.204 2.9516 10.222 5.6466C11.257 6.9256 12.368 9.4736 13.442 11.9376L13.908 12.9996H11.917L11.239 18.1306C11.173 18.6266 10.747 18.9996 10.247 18.9996H6V21.9996H0V23.9996H8V20.9996H10.247C11.746 20.9996 13.024 19.8796 13.222 18.3936L13.67 14.9996H16V12.7876L15.276 11.1396C14.096 8.4346 12.982 5.8786 11.8 4.4186Z" fill="#A6EFFF"/>
</g>
<defs>
<clipPath id="clip0_107_1963">
<rect width="24" height="24" fill="white"/>
</clipPath>
</defs>
</svg>
