<svg width="35" height="35" viewBox="0 0 35 35" fill="none" xmlns="http://www.w3.org/2000/svg">
<path d="M17.5 0C14.0388 0 10.6554 1.02636 7.77753 2.94928C4.89967 4.87221 2.65665 7.60533 1.33212 10.803C0.00758251 14.0007 -0.338976 17.5194 0.336265 20.9141C1.01151 24.3087 2.67822 27.427 5.12564 29.8744C7.57306 32.3218 10.6913 33.9885 14.0859 34.6637C17.4806 35.339 20.9993 34.9924 24.197 33.6679C27.3947 32.3434 30.1278 30.1003 32.0507 27.2225C33.9736 24.3446 35 20.9612 35 17.5C34.995 12.8603 33.1496 8.41197 29.8688 5.13117C26.588 1.85037 22.1398 0.00501824 17.5 0ZM30.1102 10.2083H25.4129C24.3614 7.77144 22.9769 5.49221 21.299 3.43583C25.0126 4.44635 28.1784 6.87964 30.1102 10.2083ZM24.0625 17.5C24.0505 18.9848 23.8166 20.4594 23.3683 21.875H11.6317C11.1835 20.4594 10.9495 18.9848 10.9375 17.5C10.9495 16.0152 11.1835 14.5406 11.6317 13.125H23.3683C23.8166 14.5406 24.0505 16.0152 24.0625 17.5ZM12.8013 24.7917H22.1988C20.961 27.2354 19.3786 29.4887 17.5 31.4825C15.6208 29.4893 14.0383 27.2359 12.8013 24.7917ZM12.8013 10.2083C14.039 7.76456 15.6214 5.51127 17.5 3.5175C19.3793 5.51071 20.9617 7.7641 22.1988 10.2083H12.8013ZM13.7083 3.43583C12.0278 5.49177 10.6409 7.77102 9.58709 10.2083H4.8898C6.82334 6.87813 9.99201 4.44464 13.7083 3.43583ZM3.58897 13.125H8.60417C8.22611 14.5529 8.03011 16.0229 8.02084 17.5C8.03011 18.9771 8.22611 20.4471 8.60417 21.875H3.58897C2.69259 19.0272 2.69259 15.9728 3.58897 13.125ZM4.8898 24.7917H9.58709C10.6409 27.229 12.0278 29.5082 13.7083 31.5642C9.99201 30.5554 6.82334 28.1219 4.8898 24.7917ZM21.299 31.5642C22.9769 29.5078 24.3614 27.2286 25.4129 24.7917H30.1102C28.1784 28.1204 25.0126 30.5536 21.299 31.5642ZM31.411 21.875H26.3958C26.7739 20.4471 26.9699 18.9771 26.9792 17.5C26.9699 16.0229 26.7739 14.5529 26.3958 13.125H31.4081C32.3045 15.9728 32.3045 19.0272 31.4081 21.875H31.411Z" fill="#A6EFFF"/>
</svg>
