<svg width="22" height="22" viewBox="0 0 22 22" fill="none" xmlns="http://www.w3.org/2000/svg">
<path d="M1.83398 14.667C1.83398 12.523 1.83398 11.451 2.32574 10.6684C2.58218 10.2603 2.92727 9.91519 3.33538 9.65875C4.11801 9.16699 5.19 9.16699 7.33398 9.16699H14.6673C16.8113 9.16699 17.8833 9.16699 18.6659 9.65875C19.074 9.91519 19.4191 10.2603 19.6756 10.6684C20.1673 11.451 20.1673 12.523 20.1673 14.667C20.1673 16.811 20.1673 17.883 19.6756 18.6656C19.4191 19.0737 19.074 19.4188 18.6659 19.6752C17.8833 20.167 16.8113 20.167 14.6673 20.167H7.33398C5.19 20.167 4.11801 20.167 3.33538 19.6752C2.92727 19.4188 2.58218 19.0737 2.32574 18.6656C1.83398 17.883 1.83398 16.811 1.83398 14.667Z" stroke="white" stroke-width="1.5" stroke-linecap="round" stroke-linejoin="round"/>
<path d="M18.3346 9.16667C18.3346 7.88321 18.3346 7.24149 18.0849 6.75127C17.8651 6.32007 17.5146 5.96949 17.0834 5.74978C16.5931 5.5 15.9514 5.5 14.668 5.5H7.33464C6.05118 5.5 5.40945 5.5 4.91924 5.74978C4.48804 5.96949 4.13746 6.32007 3.91775 6.75127C3.66797 7.24149 3.66797 7.88321 3.66797 9.16667" stroke="white" stroke-width="1.5" stroke-linecap="round" stroke-linejoin="round"/>
<path d="M16.5 5.50016C16.5 3.77168 16.5 2.90744 15.963 2.37047C15.4261 1.8335 14.5618 1.8335 12.8333 1.8335H9.16667C7.43818 1.8335 6.57394 1.8335 6.03697 2.37047C5.5 2.90744 5.5 3.77168 5.5 5.50016" stroke="white" stroke-width="1.5" stroke-linecap="round" stroke-linejoin="round"/>
<path d="M13.75 12.8335C13.75 13.846 12.9292 14.6668 11.9167 14.6668H10.0833C9.07081 14.6668 8.25 13.846 8.25 12.8335" stroke="white" stroke-width="1.5" stroke-linecap="round"/>
</svg>
