<svg width="22" height="22" viewBox="0 0 22 22" fill="none" xmlns="http://www.w3.org/2000/svg">
<path d="M10.0833 1.8335C6.62637 1.8335 4.89788 1.8335 3.82394 2.86818C2.75 3.90286 2.75 5.56815 2.75 8.89873V16.4826C2.75 18.5963 2.75 19.6531 3.45844 20.0314C4.83035 20.764 7.40373 18.3199 8.62584 17.584C9.3346 17.1573 9.68899 16.9439 10.0833 16.9439C10.4777 16.9439 10.8321 17.1573 11.5408 17.584C12.7629 18.3199 15.3363 20.764 16.7082 20.0314C17.4167 19.6531 17.4167 18.5963 17.4167 16.4826V11.4585" stroke="white" stroke-width="1.5" stroke-linecap="round" stroke-linejoin="round"/>
<path d="M3.20898 6.41699H9.16732" stroke="white" stroke-width="1.5" stroke-linecap="round"/>
<path d="M15.5827 9.16683L15.5827 1.8335M11.916 5.50016H19.2493" stroke="white" stroke-width="1.5" stroke-linecap="round"/>
</svg>
