<svg width="22" height="22" viewBox="0 0 22 22" fill="none" xmlns="http://www.w3.org/2000/svg">
<path d="M11.0013 20.1668C16.0639 20.1668 20.1679 16.0628 20.1679 11.0002C20.1679 5.93755 16.0639 1.8335 11.0013 1.8335C6.89676 1.8335 3.46104 4.53115 2.29297 8.25016H4.58464" stroke="white" stroke-width="1.5" stroke-linecap="round" stroke-linejoin="round"/>
<path d="M11 7.3335V11.0002L12.8333 12.8335" stroke="white" stroke-width="1.5" stroke-linecap="round" stroke-linejoin="round"/>
<path d="M1.83398 11C1.83398 11.3092 1.84792 11.615 1.87518 11.9167M8.25065 20.1667C7.93752 20.0636 7.63163 19.9434 7.33398 19.8071M2.9426 15.5833C2.76582 15.2427 2.60813 14.8897 2.47104 14.5257M4.42927 17.6976C4.70947 17.9995 5.00845 18.2821 5.32424 18.5435" stroke="white" stroke-width="1.5" stroke-linecap="round" stroke-linejoin="round"/>
</svg>
