<svg width="22" height="22" viewBox="0 0 22 22" fill="none" xmlns="http://www.w3.org/2000/svg">
<path d="M18.6933 7.36253L17.0919 5.97189C15.9381 4.9699 15.4859 4.43089 14.8611 4.62144C14.082 4.85904 14.3385 6.35825 14.3385 6.86438C13.1272 6.86438 11.8679 6.77122 10.674 6.96533C6.73248 7.60613 5.5 10.4104 5.5 13.4317C6.61556 12.7478 7.73001 11.9852 9.07079 11.6683C10.7445 11.2727 12.6137 11.4615 14.3385 11.4615C14.3385 11.9676 14.082 13.4668 14.8611 13.7044C15.5691 13.9203 15.9381 13.3559 17.0919 12.354L18.6933 10.9633C19.6755 10.1103 20.1667 9.68381 20.1667 9.16293C20.1667 8.64204 19.6755 8.21554 18.6933 7.36253Z" fill="#D9D9D9" stroke="white" stroke-width="1.5" stroke-linecap="round" stroke-linejoin="round"/>
<path d="M9.6876 2.75C6.14905 2.75636 4.29609 2.84306 3.11191 4.02484C1.83399 5.30018 1.83399 7.35281 1.83398 11.4581C1.83398 15.5633 1.83398 17.616 3.11191 18.8913C4.38984 20.1667 6.44663 20.1667 10.5602 20.1667C14.6738 20.1667 16.7306 20.1667 18.0085 18.8913C18.8983 18.0034 19.1686 16.7386 19.2506 14.6667" stroke="white" stroke-width="1.5" stroke-linecap="round" stroke-linejoin="round"/>
</svg>
